<?xml version="1.0" standalone="no"?><!DOCTYPE svg PUBLIC "-//W3C//DTD SVG 1.1//EN" "http://www.w3.org/Graphics/SVG/1.1/DTD/svg11.dtd"><svg t="1685856618174" class="icon" viewBox="0 0 1024 1024" version="1.1" xmlns="http://www.w3.org/2000/svg" p-id="811" xmlns:xlink="http://www.w3.org/1999/xlink" width="220" height="220"><path d="M880.02890691 486.2658895v26.32393789c0 203.24420398-165.36522848 368.6001438-368.61872112 368.60014298H485.08624873v52.66645228h26.32393706c232.29899396 0 421.27588394-188.98617866 421.27588476-421.26659526v-26.32393789h-52.65716364zM893.20016412 202.76804502h26.32393707v63.48768941h-26.32393707zM893.20016412 314.23143524h26.32393707v63.48768943h-26.32393707zM893.20016412 154.79234338h26.32393707V90.13428867h-63.47840074v26.33322573h37.15446367zM90.13430185 314.23143524h26.33322573v63.48768943H90.13430185zM90.13430185 425.69482547h26.33322573v63.48768942H90.13430185zM90.13430185 537.16750437h26.33322573v63.47840157H90.13430185zM90.13430185 202.76804502h26.33322573v63.48768941H90.13430185zM116.46752758 116.4675144h22.82212904V90.13428867H90.13430185v64.65805471h26.33322573zM116.46752758 871.55767588H90.13430185v49.13677825h79.87280766v-26.32393706H116.46752758zM90.13430185 648.63089542h26.33322573v63.47840076H90.13430185zM90.13430185 760.09428565h26.33322573v63.47840075H90.13430185zM217.98281033 894.37051707h63.48768944v26.32393706h-63.48768944zM329.44620059 894.37051707h63.48769022v26.32393706h-63.48769026zM744.58231021 90.13428867h63.47840076v26.33322573h-63.47840076zM298.72874848 90.13428867h63.48768941v26.33322573h-63.48768944zM410.1921387 90.13428867h63.48768942v26.33322573h-63.48768942zM187.26535741 90.13428867h63.48769026v26.33322573h-63.48769024zM633.11891997 90.13428867h63.47840077v26.33322573h-63.47840077zM521.65552894 90.13428867h63.47840075v26.33322573h-63.47840075z" fill="#000000" p-id="812"></path></svg>