<svg width="193" height="50" xmlns="http://www.w3.org/2000/svg" xmlns:xlink="http://www.w3.org/1999/xlink" xml:space="preserve" overflow="hidden"><defs><clipPath id="clip0"><rect x="453" y="140" width="193" height="50"/></clipPath><clipPath id="clip1"><rect x="454" y="141" width="192" height="49"/></clipPath><clipPath id="clip2"><rect x="454" y="141" width="192" height="49"/></clipPath><clipPath id="clip3"><rect x="454" y="141" width="192" height="49"/></clipPath></defs><g clip-path="url(#clip0)" transform="translate(-453 -140)"><g clip-path="url(#clip1)"><g clip-path="url(#clip2)"><g clip-path="url(#clip3)"><path d="M72.3147 38.5C73.5187 38.5 73.5257 37.4232 73.5245 37.3147 73.5233 36.9098 73.5175 34.2592 73.5175 33.852 73.5175 32.6853 72.3333 32.6667 72.3333 32.6667 72.3333 32.6667 49.2975 32.648 47.8147 32.648 45.4638 32.648 45.5 30.373 45.5 30.373 45.4697 30.2248 45.5012 28 45.5 28L68.8427 28C75.3223 28 74.6667 23.3333 74.6667 23.3333L74.6667 18.7087C74.6667 18.7087 75.299 10.5 66.5187 10.5L46.8533 10.5C37.9167 10.5 38.5222 18.6002 38.5222 18.6002 38.5222 22.9857 38.5245 24.5537 38.5245 30.324 38.5245 38.5 46.7028 38.4627 46.7028 38.4627M66.5198 22.183C65.7743 22.183 45.5 22.1853 45.5 22.1853 45.5 22.1853 45.5047 19.1637 45.5047 18.7028 45.5047 17.5187 46.6305 16.3555 47.852 16.352 48.9848 16.3473 64.2145 16.352 65.3882 16.352 66.4452 16.352 67.6725 17.5362 67.6667 18.6853 67.662 19.5942 67.648 20.1507 67.648 21.0187 67.648 21.0187 67.648 22.183 66.5198 22.183" fill="#D45B63" fill-rule="nonzero" fill-opacity="1" transform="matrix(1.00348 0 0 1 452.829 141)"/><path d="M34.9883 0C34.4878 0.00116667 30.8362 0.00116667 30.3368 0 30.3368 0 29.1678 0 29.1678 1.20283 29.1678 1.2985 29.1632 10.5 29.1632 10.5 24.2515 10.4988 19.1648 10.5023 14.0525 10.5 3.073 10.4965 1.13983 20.0048 1.15033 24.5163 1.162 29.0278 3.12433 38.4813 14.2263 38.4697 25.3295 38.4592 25.6398 38.4837 30.3403 38.4837 36.1608 38.4837 36.1667 32.6853 36.1667 32.6853L36.1667 1.16667C36.1667 0 34.9883 0 34.9883 0ZM29.148 31.5292C29.148 31.5292 29.1667 32.6667 27.9813 32.6667 26.7097 32.6667 20.4995 32.6807 16.6845 32.669 12.8672 32.6585 8.18767 31.8197 8.18533 24.591 8.18183 17.3612 13.3828 16.3602 16.6297 16.3602 19.8742 16.3602 29.1433 16.373 29.1433 16.373 29.1433 16.373 29.148 30.4932 29.148 31.5292Z" fill="#D45B63" fill-rule="nonzero" fill-opacity="1" transform="matrix(1.00348 0 0 1 452.829 141)"/><path d="M158.667 7 154 7C153.356 7 152.833 6.47733 152.833 5.83333L152.833 1.16667C152.833 0.522667 153.356 0 154 0L158.667 0C159.311 0 159.833 0.522667 159.833 1.16667L159.833 5.83333C159.833 6.47733 159.311 7 158.667 7" fill="#D45B63" fill-rule="nonzero" fill-opacity="1" transform="matrix(1.00348 0 0 1 452.829 141)"/><path d="M158.667 38.5 154 38.5C153.356 38.5 152.833 37.9773 152.833 37.3333L152.833 11.6667C152.833 11.0227 153.356 10.5 154 10.5L158.667 10.5C159.311 10.5 159.833 11.0227 159.833 11.6667L159.833 37.3333C159.833 37.9773 159.311 38.5 158.667 38.5" fill="#D45B63" fill-rule="nonzero" fill-opacity="1" transform="matrix(1.00348 0 0 1 452.829 141)"/><path d="M180.833 10.5082C172.263 10.4965 162.167 10.5047 162.167 10.5047L162.167 37.3147C162.167 37.8443 162.505 38.6248 163.563 38.4895 164.704 38.4848 166.497 38.479 167.638 38.4755 169.246 38.7042 169.199 37.2972 169.199 37.2972L169.165 16.352C169.165 16.352 177.701 16.3427 180.824 16.3427 181.019 16.3427 185.536 16.4302 185.536 22.1667L185.502 37.3345C185.501 37.9808 186.024 38.5047 186.67 38.5035L191.335 38.5012C191.978 38.5 192.5 37.9785 192.5 37.3345L192.5 21.6358C192.5 15.169 189.404 10.5198 180.833 10.5082" fill="#D45B63" fill-rule="nonzero" fill-opacity="1" transform="matrix(1.00348 0 0 1 452.829 141)"/><path d="M29.1457 31.5898C29.1305 31.8208 29.0045 32.6667 27.9813 32.6667 26.7097 32.6667 20.4995 32.6807 16.6845 32.669 12.8672 32.6585 8.18533 31.8197 8.18533 24.591 8.18533 17.0917 13.3828 16.3602 16.6297 16.3602 16.6297 16.3602-2.142 15.9448 3.00883 31.7975 4.5395 36.0395 8.7115 38.4755 14.2263 38.4697 20.9907 38.4638 20.2463 38.4697 22.4315 38.4767 26.2092 38.4767 29.1457 35.3523 29.1457 31.5898" fill="#D45B63" fill-rule="nonzero" fill-opacity="1" transform="matrix(1.00348 0 0 1 452.829 141)"/><path d="M116.67 48.9837C117.171 48.9825 120.819 48.9825 121.318 48.9837 121.318 48.9837 122.484 48.9837 122.484 47.7808 122.484 47.6852 122.488 38.4837 122.488 38.4837 127.4 38.4848 132.487 38.4825 137.598 38.4837 148.577 38.4883 150.51 28.98 150.5 24.4673 150.488 19.9558 148.526 10.5023 137.424 10.514 126.321 10.5245 126.019 10.5 121.319 10.5 115.498 10.5 115.5 16.2995 115.5 16.2995L115.5 47.817C115.5 48.9837 116.67 48.9837 116.67 48.9837ZM122.501 17.4557C122.501 17.4557 122.484 16.317 123.668 16.317 124.939 16.317 131.15 16.303 134.966 16.3147 138.783 16.3263 143.463 17.164 143.465 24.3927 143.468 31.6225 138.268 32.6235 135.021 32.6235 131.776 32.6235 122.507 32.6118 122.507 32.6118 122.507 32.6118 122.501 18.4905 122.501 17.4557Z" fill="#D45B63" fill-rule="nonzero" fill-opacity="1" transform="matrix(1.00348 0 0 1 452.829 141)"/><path d="M72.3333 32.6667C72.3333 32.6667 50.7652 32.6492 47.8882 32.6492 45.4848 32.6492 45.5 30.373 45.5 30.373 45.5 30.373 44.9633 38.4988 52.038 38.4988 52.038 38.4988 71.0558 38.5 72.3147 38.5 73.5735 38.5 73.5 37.3333 73.5 37.3333L73.5 33.852C73.5 32.7215 72.3333 32.6667 72.3333 32.6667" fill="#D45B63" fill-rule="nonzero" fill-opacity="1" transform="matrix(1.00348 0 0 1 452.829 141)"/><path d="M110.815 38.5C112.019 38.5 112.026 37.4232 112.024 37.3147 112.023 36.9098 112.017 34.2592 112.017 33.852 112.017 32.6853 110.833 32.6667 110.833 32.6667 110.833 32.6667 87.7975 32.648 86.3147 32.648 83.9638 32.648 84 30.373 84 30.373 83.9697 30.2248 84.0012 28 84 28L107.343 28C113.822 28 113.167 23.3333 113.167 23.3333L113.167 18.7087C113.167 18.7087 113.799 10.5 105.019 10.5L85.3533 10.5C76.4167 10.5 77.0222 18.6002 77.0222 18.6002 77.0222 22.9857 77.0245 24.5537 77.0245 30.324 77.0245 38.5 85.2028 38.4627 85.2028 38.4627M105.02 22.183C104.274 22.183 84 22.1853 84 22.1853 84 22.1853 84.0047 19.1637 84.0047 18.7028 84.0047 17.5187 85.1305 16.3555 86.352 16.352 87.4848 16.3473 102.715 16.352 103.888 16.352 104.945 16.352 106.172 17.5362 106.167 18.6853 106.162 19.5942 106.148 20.1507 106.148 21.0187 106.148 21.0187 106.148 22.183 105.02 22.183" fill="#D45B63" fill-rule="nonzero" fill-opacity="1" transform="matrix(1.00348 0 0 1 452.829 141)"/><path d="M110.833 32.6667C110.833 32.6667 89.2652 32.6492 86.3882 32.6492 83.9848 32.6492 84 30.373 84 30.373 84 30.373 83.4633 38.4988 90.538 38.4988 90.538 38.4988 109.556 38.5 110.815 38.5 112.072 38.5 112 37.3333 112 37.3333L112 33.852C112 32.7215 110.833 32.6667 110.833 32.6667" fill="#D45B63" fill-rule="nonzero" fill-opacity="1" transform="matrix(1.00348 0 0 1 452.829 141)"/><path d="M147.882 26.9185C146.69 20.4528 140.806 17.6867 140.806 17.6867L140.717 17.703C142.325 18.8277 143.464 20.8332 143.465 24.3927 143.468 31.6225 138.268 32.6235 135.021 32.6235 131.776 32.6235 122.507 32.6118 122.507 32.6118 122.507 32.6118 122.505 25.6667 122.502 21L122.5 21 122.5 38.4838C127.408 38.4848 138.088 38.4673 138.328 38.4557L138.324 38.465C140.712 38.4673 142.893 37.5678 142.893 37.5678 148.154 34.2067 148.374 29.5902 147.882 26.9185" fill="#D45B63" fill-rule="nonzero" fill-opacity="1" transform="matrix(1.00348 0 0 1 452.829 141)"/><path d="M158.667 10.5 154 10.5C154 10.5 159.833 15.4968 159.833 25.7565L159.833 11.6667C159.833 11.0227 159.311 10.5 158.667 10.5" fill="#D45B63" fill-rule="nonzero" fill-opacity="1" transform="matrix(1.00348 0 0 1 452.829 141)"/><path d="M154 7 158.667 7C158.809 7 158.942 6.965 159.068 6.91833 153.614 6.24283 152.833 1.3125 152.833 1.3125L152.833 5.83333C152.833 6.47733 153.356 7 154 7" fill="#D45B63" fill-rule="nonzero" fill-opacity="1" transform="matrix(1.00348 0 0 1 452.829 141)"/><path d="M181.302 16.3847C182.504 16.5597 185.536 17.4638 185.536 22.1667L185.502 37.3345C185.501 37.9808 186.024 38.5047 186.67 38.5035L191.335 38.5012C191.978 38.5 192.5 37.9785 192.5 37.3345L192.5 24.9433C192.5 17.3728 181.302 16.3847 181.302 16.3847" fill="#D45B63" fill-rule="nonzero" fill-opacity="1" transform="matrix(1.00348 0 0 1 452.829 141)"/></g></g></g></g></svg>